<svg width="24" height="24" viewBox="0 0 24 24" fill="none" xmlns="http://www.w3.org/2000/svg">
<path d="M22.4308 10.6154H7.10771C6.69232 10.6154 6.50771 10.1077 6.78463 9.83077L11.2154 5.4C11.4923 5.12308 11.4923 4.70769 11.2154 4.43077L10.2 3.41539C9.92309 3.13846 9.50771 3.13846 9.23078 3.41539L1.15386 11.5385C0.876936 11.8154 0.876936 12.2308 1.15386 12.5077L9.23078 20.5846C9.50771 20.8615 9.92309 20.8615 10.2 20.5846L11.1692 19.6154C11.4462 19.3385 11.4462 18.9231 11.1692 18.6462L6.73848 14.2154C6.46155 13.8923 6.64617 13.3846 7.06155 13.3846H22.3846C22.7539 13.3846 23.0769 13.1077 23.0769 12.7385V11.3538C23.0769 10.9846 22.8 10.6154 22.4308 10.6154Z" fill="#675752" stroke="#675752"/>
</svg>
