<svg width="30" height="30" viewBox="0 0 30 30" fill="none" xmlns="http://www.w3.org/2000/svg">
<path d="M23.4977 5.03212C23.6965 5.03254 23.887 5.11169 24.0276 5.25225C24.1682 5.39281 24.2473 5.58334 24.2477 5.78212V23.25C24.2473 23.4488 24.1682 23.6393 24.0276 23.7799C23.887 23.9204 23.6965 23.9996 23.4977 24H6.50195C6.30317 23.9996 6.11265 23.9204 5.97208 23.7799C5.83152 23.6393 5.75237 23.4488 5.75195 23.25V5.78212C5.75237 5.58334 5.83152 5.39281 5.97208 5.25225C6.11265 5.11169 6.30317 5.03254 6.50195 5.03212H8.59879V6.17054C8.59879 6.76728 8.83585 7.33957 9.2578 7.76153C9.67976 8.18349 10.2521 8.42054 10.8488 8.42054C11.4455 8.42054 12.0178 8.18349 12.4398 7.76153C12.8617 7.33957 13.0988 6.76728 13.0988 6.17054V5.0337H16.9104V6.17054C16.9104 6.76728 17.1474 7.33957 17.5694 7.76153C17.9913 8.18349 18.5636 8.42054 19.1604 8.42054C19.7571 8.42054 20.3294 8.18349 20.7514 7.76153C21.1733 7.33957 21.4104 6.76728 21.4104 6.17054V5.0337L23.4977 5.03212ZM22.4967 10.3532H7.50301V22.2505H22.4967V10.3532ZM10.8377 11.6495H8.87511V13.6895H10.8377V11.6495ZM10.8377 15.2684H8.87511V17.3084H10.8377V15.2684ZM10.8377 18.8874H8.87511V20.9258H10.8377V18.8874ZM11.7235 6.17054V3.90791C11.7235 3.67591 11.6314 3.45342 11.4673 3.28938C11.3033 3.12533 11.0808 3.03317 10.8488 3.03317C10.6168 3.03317 10.3943 3.12533 10.2303 3.28938C10.0662 3.45342 9.97406 3.67591 9.97406 3.90791V6.17054C9.97406 6.40254 10.0662 6.62503 10.2303 6.78907C10.3943 6.95312 10.6168 7.04528 10.8488 7.04528C11.0808 7.04528 11.3033 6.95312 11.4673 6.78907C11.6314 6.62503 11.7235 6.40254 11.7235 6.17054ZM14.2704 11.6495H12.3062V13.6895H14.2704V11.6495ZM14.2704 15.2684H12.3062V17.3084H14.2704V15.2684ZM14.2704 18.8874H12.3062V20.9258H14.2704V18.8874ZM17.703 11.6495H15.7388V13.6895H17.703V11.6495ZM17.703 15.2684H15.7388V17.3084H17.703V15.2684ZM17.703 18.8874H15.7388V20.9258H17.703V18.8874ZM20.0351 6.17054V3.90791C20.0351 3.67591 19.943 3.45342 19.7789 3.28938C19.6149 3.12533 19.3924 3.03317 19.1604 3.03317C18.9284 3.03317 18.7059 3.12533 18.5418 3.28938C18.3778 3.45342 18.2856 3.67591 18.2856 3.90791V6.17054C18.2856 6.40254 18.3778 6.62503 18.5418 6.78907C18.7059 6.95312 18.9284 7.04528 19.1604 7.04528C19.3924 7.04528 19.6149 6.95312 19.7789 6.78907C19.943 6.62503 20.0351 6.40254 20.0351 6.17054ZM21.1341 11.6495H19.1714V13.6895H21.1341V11.6495ZM21.1341 15.2684H19.1714V17.3084H21.1341V15.2684ZM21.1341 18.8874H19.1714V20.9258H21.1341V18.8874Z" fill="#675752"/>
</svg>
