<svg width="16" height="16" viewBox="0 0 16 16" fill="none" xmlns="http://www.w3.org/2000/svg">
<g clip-path="url(#clip0_74_2)">
<path fill-rule="evenodd" clip-rule="evenodd" d="M7.49306 0.015007C7.44206 0.021007 7.26806 0.039007 7.10706 0.055007C5.23406 0.242007 3.34706 1.20801 2.07106 2.63401C0.660062 4.21101 -0.0569381 6.16801 0.00906191 8.25301C0.124062 11.854 2.59906 14.903 6.11006 15.771C8.16906 16.28 10.4331 15.917 12.2271 14.791C14.0171 13.666 15.2701 11.933 15.7711 9.88701C15.9431 9.18601 15.9831 8.82901 15.9831 8.00001C15.9831 7.17101 15.9431 6.81401 15.7711 6.11301C14.9791 2.87801 12.3151 0.498007 9.00006 0.064007C8.71606 0.027007 7.68306 -0.00599302 7.49306 0.015007ZM8.85306 1.56301C9.96706 1.70701 11.0101 2.13601 11.9441 2.83401C12.2731 3.08001 12.9201 3.72701 13.1661 4.05601C13.7271 4.80701 14.1421 5.69001 14.3301 6.53501C14.5441 7.50001 14.5441 8.50001 14.3301 9.46501C13.9161 11.326 12.6051 12.978 10.8671 13.828C10.2391 14.135 9.59106 14.336 8.88006 14.444C8.45606 14.509 7.54406 14.509 7.12006 14.444C5.17206 14.148 3.52806 13.085 2.49306 11.451C2.27906 11.114 1.99906 10.526 1.85906 10.119C1.61806 9.42201 1.51406 8.78101 1.51406 8.00001C1.51406 6.96101 1.71506 6.07501 2.16006 5.16001C2.50006 4.46201 2.84606 3.98001 3.41306 3.41301C3.98006 2.84601 4.46206 2.50001 5.16006 2.16001C6.31306 1.59901 7.56706 1.39701 8.85306 1.56301ZM7.70606 4.29001C7.48206 4.36301 7.35506 4.49101 7.29306 4.70501C7.25706 4.82701 7.25306 5.10601 7.25906 6.81601C7.26706 8.78601 7.26706 8.78701 7.32506 8.89601C7.39806 9.03301 7.53806 9.15701 7.67106 9.20401C7.80306 9.25001 8.19706 9.25001 8.32906 9.20401C8.46206 9.15701 8.60206 9.03301 8.67506 8.89601C8.73306 8.78701 8.73306 8.78601 8.74106 6.81601C8.74906 4.66401 8.74906 4.66201 8.59606 4.48101C8.47206 4.33301 8.33906 4.28401 8.04006 4.27601C7.89306 4.27201 7.74306 4.27801 7.70606 4.29001ZM7.78606 10.53C7.59706 10.592 7.41006 10.753 7.31906 10.932C7.24906 11.072 7.23706 11.325 7.29406 11.495C7.38806 11.78 7.69706 12 8.00006 12C8.30306 12 8.61206 11.78 8.70606 11.495C8.76306 11.325 8.75106 11.072 8.68106 10.932C8.61606 10.804 8.46006 10.646 8.33306 10.58C8.21706 10.52 7.90406 10.491 7.78606 10.53Z" fill="#4A2C2C"/>
</g>
<defs>
<clipPath id="clip0_74_2">
<rect width="16" height="16" fill="white"/>
</clipPath>
</defs>
</svg>
