<svg width="24" height="24" viewBox="0 0 24 24" fill="none" xmlns="http://www.w3.org/2000/svg">
<path d="M6 14V8.99999C6.00354 7.72909 6.41055 6.49214 7.16235 5.46745C7.91415 4.44276 8.9719 3.68325 10.1831 3.29841C11.3944 2.91357 12.6965 2.92328 13.9019 3.32614C15.1073 3.729 16.1536 4.5042 16.89 5.53999" stroke="#675752" stroke-width="2" stroke-linecap="round" stroke-linejoin="round"/>
<path d="M18 10V15C17.9964 16.2709 17.5894 17.5078 16.8376 18.5325C16.0858 19.5572 15.0281 20.3167 13.8168 20.7016C12.6056 21.0864 11.3035 21.0767 10.0981 20.6738C8.89273 20.271 7.84642 19.4958 7.10999 18.46" stroke="#675752" stroke-width="2" stroke-linecap="round" stroke-linejoin="round"/>
<path d="M8 12L6 14L4 12" stroke="#675752" stroke-width="2" stroke-linecap="round" stroke-linejoin="round"/>
<path d="M16 12L18 10L20 12" stroke="#675752" stroke-width="2" stroke-linecap="round" stroke-linejoin="round"/>
</svg>
